# xmcd
#
# Track frame offsets:
#	150
#	17466
#	32904
#	51791
#	68995
#	88510
#	104865
#	125433
#	143930
#	168808
#	189021
#	208097
#	230264
#	252964
#
# Disc length: 3604
#
# Revision: 3
# Processed by: cddbd v1.5.2PL0 Copyright (c) Steve Scherf et al.
# Submitted via: EasyCDDAExtractor 4.6.9.1
# Normalized: r0:DSETVAR1,TDELIM( - );r1:TSWAP
#
DISCID=bc0e120e
DTITLE=Various Artist - Soul in Motion Disc 2
DYEAR=2001
DGENRE=Soul
TTITLE0=Usher - Nice and Slow
TTITLE1=Xscape - Just Kickin・It
TTITLE2=TLC - Diggin・On You
TTITLE3=Elisha La・Verne Feat Vooodu - Elisha Is Not At Home
TTITLE4=Christopher Williams - Never Stop
TTITLE5=Chantay Savage - I Will Survive
TTITLE6=Michelle Gayle - Don・t Keep Me Waiting
TTITLE7=Brownstone - I Can・t Tell You Why
TTITLE8=Smooth - Undercover Lover
TTITLE9=H-Town - Knockin`Da Boots
TTITLE10=Az Yet - Last Night
TTITLE11=Kylie Minogue - Put Yourself In My Place
TTITLE12=Hi-Five - I Can・t Wait Another Minute
TTITLE13=Jonathan Butler and Ruby Turner - If You・re Ready (Come With Me)
EXTD=
EXTT0=
EXTT1=
EXTT2=
EXTT3=
EXTT4=
EXTT5=
EXTT6=
EXTT7=
EXTT8=
EXTT9=
EXTT10=
EXTT11=
EXTT12=
EXTT13=
PLAYORDER=
